HIERARCHY
ROOT Hips
{
	OFFSET -3.958830 18.904000 13.208200
	CHANNELS 6 Xposition Yposition Zposition Zrotation Yrotation Xrotation 
	JOINT LHipJoint
	{
		OFFSET 0.000000 0.000000 0.000000
		CHANNELS 3 Zrotation Yrotation Xrotation
		JOINT LeftUpLeg
		{
			OFFSET 1.800000 -1.400000 0.085000
			CHANNELS 3 Zrotation Yrotation Xrotation
			JOINT LeftLeg
			{
				OFFSET 2.215000 -6.000000 0.000000
				CHANNELS 3 Zrotation Yrotation Xrotation
				JOINT LeftFoot
				{
					OFFSET 2.500000 -6.900000 0.000000
					CHANNELS 3 Zrotation Yrotation Xrotation
					JOINT LeftToeBase
					{
						OFFSET 0.200000 -0.500000 1.950000
						CHANNELS 3 Zrotation Yrotation Xrotation
						End Site
						{
							OFFSET 0.000000 0.000000 0.000000
						}
					}
				}
			}
		}
	}
	JOINT RHipJoint
	{
		OFFSET 0.000000 0.000000 0.000000
		CHANNELS 3 Zrotation Yrotation Xrotation
		JOINT RightUpLeg
		{
			OFFSET -1.800000 -1.400000 0.085000
			CHANNELS 3 Zrotation Yrotation Xrotation
			JOINT RightLeg
			{
				OFFSET -2.215000 -6.000000 0.000000
				CHANNELS 3 Zrotation Yrotation Xrotation
				JOINT RightFoot
				{
					OFFSET -2.500000 -6.900000 0.000000
					CHANNELS 3 Zrotation Yrotation Xrotation
					JOINT RightToeBase
					{
						OFFSET -0.200000 -0.500000 1.950000
						CHANNELS 3 Zrotation Yrotation Xrotation
						End Site
						{
							OFFSET 0.000000 0.000000 0.000000
						}
					}
				}
			}
		}
	}
	JOINT LowerBack
	{
		OFFSET 0.000000 0.000000 0.000000
		CHANNELS 3 Zrotation Yrotation Xrotation
		JOINT Spine
		{
			OFFSET -0.087000 1.940000 -0.288900
			CHANNELS 3 Zrotation Yrotation Xrotation
			JOINT Spine1
			{
				OFFSET 0.000000 1.950000 0.060000
				CHANNELS 3 Zrotation Yrotation Xrotation
				JOINT Neck
				{
					OFFSET 0.000000 0.000000 0.000000
					CHANNELS 3 Zrotation Yrotation Xrotation
					JOINT Neck1
					{
						OFFSET 0.000000 1.600000 0.340000
						CHANNELS 3 Zrotation Yrotation Xrotation
						JOINT Head
						{
							OFFSET 0.000000 1.667000 -0.240000
							CHANNELS 3 Zrotation Yrotation Xrotation
							End Site
							{
								OFFSET 0.000000 0.000000 0.000000
							}
						}
					}
				}
				JOINT LeftShoulder
				{
					OFFSET 0.000000 0.000000 0.000000
					CHANNELS 3 Zrotation Yrotation Xrotation
					JOINT LeftArm
					{
						OFFSET 2.700000 1.550000 -0.730000
						CHANNELS 3 Zrotation Yrotation Xrotation
						JOINT LeftForeArm
						{
							OFFSET 5.450000 0.000000 0.000000
							CHANNELS 3 Zrotation Yrotation Xrotation
							JOINT LeftHand
							{
								OFFSET 3.450000 0.000000 0.000000
								CHANNELS 3 Zrotation Yrotation Xrotation
								JOINT LeftHandIndex1
								{
									OFFSET 0.750000 0.000000 0.000000
									CHANNELS 3 Zrotation Yrotation Xrotation
									End Site
									{
										OFFSET 0.000000 0.000000 0.000000
									}
								}
							}
						}
					}
				}
				JOINT RightShoulder
				{
					OFFSET 0.000000 0.000000 0.000000
					CHANNELS 3 Zrotation Yrotation Xrotation
					JOINT RightArm
					{
						OFFSET -2.700000 1.550000 -0.730000
						CHANNELS 3 Zrotation Yrotation Xrotation
						JOINT RightForeArm
						{
							OFFSET -5.450000 0.000000 0.000000
							CHANNELS 3 Zrotation Yrotation Xrotation
							JOINT RightHand
							{
								OFFSET -3.450000 0.000000 0.000000
								CHANNELS 3 Zrotation Yrotation Xrotation
								JOINT RightHandIndex1
								{
									OFFSET -0.750000 0.000000 0.000000
									CHANNELS 3 Zrotation Yrotation Xrotation
									End Site
									{
										OFFSET 0.000000 0.000000 0.000000
									}
								}
							}
						}
					}
				}
			}
		}
	}
}
MOTION
Frames: 6
Frame Time: 0.016667
0.044340 12.202320 -3.623670 -70.790364 -53.945448 34.796512 -15.481427 8.384712 5.175847 -8.355853 -13.847113 -58.030232 5.612691 2.427040 19.170449 -0.429786 1.972740 3.631554 0.357510 0.301130 0.396920 18.765193 -5.716299 6.902936 -34.537241 9.594440 -33.546619 49.909437 8.506657 -17.699659 -1.056952 -5.523445 2.225804 0.216720 -0.181320 0.017580 -4.261565 -1.151422 -10.851182 13.998179 -2.297488 46.460803 -10.438434 -0.010129 9.987515 5.778041 3.585296 -12.829748 9.922636 2.732270 79.188228 -2.118400 6.264890 7.153630 -30.661644 -21.008183 8.520323 -29.845371 0.631339 -2.306462 1.503170 2.306492 -0.596856 -3.707633 2.842957 0.217960 -0.047650 0.168890 0.008590 19.277729 22.566960 1.668956 55.448527 40.774561 13.134016 90.358897 56.837259 46.491332 2.781982 -1.721893 -0.014770 0.049000 -0.131810 -0.157840 
0.054970 12.168380 -3.595290 -70.745801 -54.643395 34.179579 -15.463075 8.547773 5.160958 -8.223465 -13.594515 -57.221852 4.759563 2.499461 18.541395 -0.457611 1.905124 3.650856 0.371570 0.314640 0.415810 18.747494 -5.924981 6.751617 -34.042026 9.611605 -34.342971 48.923592 7.218192 -15.671082 -1.025467 -5.468113 2.227158 0.224890 -0.198520 0.021180 -4.266113 -1.118680 -10.734968 14.373184 -2.567448 47.008702 -10.332363 -0.204785 9.568803 5.769402 3.906993 -12.520211 10.964337 1.830867 79.345661 -2.280040 6.136140 6.475430 -31.496521 -20.612796 8.209980 -30.059382 0.856640 -2.541596 1.557963 1.990922 -0.627452 -3.698260 2.831934 0.233600 -0.057140 0.183760 0.002360 20.201164 21.808979 1.433394 57.031670 39.756825 12.605092 88.684641 54.875288 43.946564 2.744090 -1.789118 -0.012670 0.050600 -0.134220 -0.167130 
0.069540 12.161710 -3.573430 -70.964364 -55.375052 33.649449 -15.435405 8.778850 5.114671 -8.062911 -13.132969 -56.096677 4.339301 2.498674 17.725573 -0.478879 1.814453 3.677268 0.378820 0.324630 0.426190 18.726303 -6.192474 6.562534 -33.136064 9.697948 -35.197553 48.073938 5.662900 -13.005162 -0.982320 -5.397641 2.234669 0.228510 -0.212840 0.023160 -4.253667 -1.077458 -10.585113 14.437911 -2.648082 47.921865 -10.386210 -0.302583 9.186620 5.768743 4.440656 -12.328492 12.574826 0.697430 79.496356 -2.110490 6.100960 6.154430 -32.584990 -20.447634 7.998185 -29.617076 1.200530 -2.800636 1.938535 1.649707 -0.642525 -3.689057 2.826694 0.243550 -0.064500 0.195500 -0.004540 21.330950 21.190260 1.257109 58.384589 38.501955 11.790881 87.394025 53.382094 41.949677 2.724076 -1.831155 -0.008670 0.047700 -0.134660 -0.173410 
0.087490 12.147500 -3.572390 -70.677750 -55.299486 33.408354 -15.431388 8.867892 5.165504 -8.171212 -13.152660 -55.878060 4.471146 2.375105 16.807830 -0.487109 1.693470 3.721005 0.378660 0.327400 0.423470 18.709111 -6.363546 6.412675 -32.435611 9.572819 -36.279145 47.018484 4.510947 -11.132018 -0.934858 -5.305578 2.259291 0.226160 -0.214140 0.024120 -4.269809 -1.036906 -10.507580 14.714135 -3.080361 48.066715 -10.371737 -0.594521 8.684329 5.730072 4.848207 -12.136287 13.804632 -0.031924 79.038389 -1.565410 6.163890 6.220840 -33.113766 -20.214561 7.851082 -29.607859 1.528143 -3.010360 2.088870 1.378166 -0.648834 -3.683425 2.834205 0.244370 -0.066000 0.198580 -0.003440 21.980272 20.452615 1.129799 59.446385 37.037991 10.881491 86.849510 52.368205 40.702130 2.716222 -1.864868 -0.005340 0.042280 -0.136940 -0.172320 
0.118570 12.150220 -3.573410 -70.389158 -55.038227 32.867169 -15.437935 9.019245 5.193098 -8.347284 -13.052277 -55.346547 5.362652 2.143859 15.989799 -0.493246 1.591891 3.765585 0.362610 0.308400 0.410720 18.675305 -6.546905 6.256657 -31.736455 9.486242 -37.245365 46.217272 3.145732 -8.749885 -0.879124 -5.240009 2.276938 0.214600 -0.202070 0.025650 -4.251606 -1.065506 -10.407564 14.888145 -3.461680 48.843273 -10.357755 -0.802190 8.084975 5.837500 5.344977 -11.935336 15.224614 -1.031997 78.229351 -1.204290 5.996880 6.562740 -33.880740 -20.188963 7.824307 -29.024185 1.800408 -3.147284 2.177071 1.078133 -0.660748 -3.683036 2.840442 0.239030 -0.058220 0.189430 -0.004560 22.573633 20.036924 0.814806 58.565636 36.097458 9.751872 86.831553 51.321650 39.737674 2.704027 -1.886308 -0.009030 0.038820 -0.130270 -0.170010 
0.142330 12.164290 -3.587430 -70.160203 -54.808641 32.352039 -15.439251 9.167382 5.198822 -8.229430 -12.865323 -54.806429 5.322850 2.107398 15.469710 -0.501650 1.536931 3.785471 0.369390 0.317830 0.418760 18.643195 -6.719081 6.110803 -30.726005 9.474032 -37.820110 45.287274 2.094200 -6.884390 -0.840901 -5.146978 2.304666 0.217430 -0.204910 0.026140 -4.223225 -1.090465 -10.306160 14.893267 -3.572179 49.603079 -10.261457 -0.746284 7.601432 5.891354 5.863291 -11.801496 16.640001 -1.977900 77.872019 -0.689870 5.935900 6.236120 -34.173925 -20.248376 7.706625 -28.627083 1.478156 -3.195474 2.162777 1.138353 -0.681692 -3.684755 2.831207 0.245430 -0.061570 0.197960 -0.003710 22.791741 19.699683 0.609923 57.911851 35.205469 8.600602 87.355170 50.380776 39.082624 2.691318 -1.903100 -0.007460 0.042930 -0.134630 -0.171640 
